<svg width="36" height="36" viewBox="0 0 36 36" fill="none" xmlns="http://www.w3.org/2000/svg">
<g clip-path="url(#clip0_69_500)">
<rect width="36" height="36" fill="#9CF9FF"/>
<rect x="1" y="1" width="7" height="10" rx="3.5" stroke="#31CEBD"/>
<rect x="10" y="-6" width="7" height="10" rx="3.5" stroke="#31CEBD"/>
<rect x="19" y="1" width="7" height="10" rx="3.5" stroke="#31CEBD"/>
<rect x="28" y="-6" width="7" height="10" rx="3.5" stroke="#31CEBD"/>
<rect x="1" y="13" width="7" height="10" rx="3.5" stroke="#31CEBD"/>
<rect x="10" y="6" width="7" height="10" rx="3.5" stroke="#31CEBD"/>
<rect x="19" y="13" width="7" height="10" rx="3.5" stroke="#31CEBD"/>
<rect x="28" y="6" width="7" height="10" rx="3.5" stroke="#31CEBD"/>
<rect x="1" y="25" width="7" height="10" rx="3.5" stroke="#31CEBD"/>
<rect x="10" y="18" width="7" height="10" rx="3.5" stroke="#31CEBD"/>
<rect x="19" y="25" width="7" height="10" rx="3.5" stroke="#31CEBD"/>
<rect x="28" y="18" width="7" height="10" rx="3.5" stroke="#31CEBD"/>
<rect x="10" y="30" width="7" height="10" rx="3.5" stroke="#31CEBD"/>
<rect x="28" y="30" width="7" height="10" rx="3.5" stroke="#31CEBD"/>
</g>
<defs>
<clipPath id="clip0_69_500">
<rect width="36" height="36" fill="white"/>
</clipPath>
</defs>
</svg>
