<svg width="36" height="36" viewBox="0 0 36 36" fill="none" xmlns="http://www.w3.org/2000/svg">
<rect width="36" height="36" fill="#FFC5B9"/>
<rect x="2" width="3" height="9.46451" rx="1.5" fill="#FF775A"/>
<rect x="14" width="3" height="9.46451" rx="1.5" fill="#FF775A"/>
<rect x="26" width="3" height="9.46451" rx="1.5" fill="#FF775A"/>
<rect x="8" y="9.5354" width="3" height="9.46451" rx="1.5" fill="#FF775A"/>
<rect x="20" y="9.5354" width="3" height="9.46451" rx="1.5" fill="#FF775A"/>
<rect x="32" y="9.5354" width="3" height="9.46451" rx="1.5" fill="#FF775A"/>
<rect x="2" y="17" width="3" height="9.46451" rx="1.5" fill="#FF775A"/>
<rect x="14" y="17" width="3" height="9.46451" rx="1.5" fill="#FF775A"/>
<rect x="26" y="17" width="3" height="9.46451" rx="1.5" fill="#FF775A"/>
<rect x="8" y="26.5354" width="3" height="9.46451" rx="1.5" fill="#FF775A"/>
<rect x="20" y="26.5354" width="3" height="9.46451" rx="1.5" fill="#FF775A"/>
<rect x="32" y="26.5354" width="3" height="9.46451" rx="1.5" fill="#FF775A"/>
</svg>
