<svg width="36" height="36" viewBox="0 0 36 36" fill="none" xmlns="http://www.w3.org/2000/svg">
<rect width="36" height="36" fill="#D9FFC8"/>
<path d="M11 2.3623C12.0985 3.46076 13.061 3.64996 13.9103 3.81664C14.7223 3.97622 15.489 4.12671 16.4188 5.0565C17.3486 5.9863 17.4995 6.75336 17.6587 7.56506C17.8254 8.41428 18.0149 9.37725 19.113 10.4753C20.2115 11.5738 21.174 11.763 22.0237 11.93C22.8353 12.0892 23.602 12.2397 24.5318 13.1695C25.462 14.0997 25.6125 14.8664 25.7721 15.6785C25.9388 16.5277 26.1279 17.4902 27.2264 18.5887C28.3249 19.6872 29.2874 19.8764 30.1367 20.043C30.9487 20.2026 31.7154 20.3531 32.6452 21.2829" stroke="#73CD4A" stroke-width="2" stroke-linecap="round"/>
<path d="M2 15.3623C3.09845 16.4608 4.06104 16.65 4.91026 16.8166C5.72235 16.9762 6.48901 17.1267 7.41881 18.0565C8.3486 18.9863 8.49949 19.7534 8.65867 20.5651C8.82536 21.4143 9.01494 22.3772 10.113 23.4753C11.2115 24.5738 12.174 24.763 13.0237 24.93C13.8353 25.0892 14.602 25.2397 15.5318 26.1695C16.462 27.0997 16.6125 27.8664 16.7721 28.6785C16.9388 29.5277 17.1279 30.4902 18.2264 31.5887C19.3249 32.6872 20.2874 32.8764 21.1367 33.043C21.9487 33.2026 22.7154 33.3531 23.6452 34.2829" stroke="#73CD4A" stroke-width="2" stroke-linecap="round"/>
<path d="M16 16L22.5 22.5" stroke="#73CD4A" stroke-width="2" stroke-linecap="round"/>
<path d="M4 4L10.5 10.5" stroke="#73CD4A" stroke-width="2" stroke-linecap="round"/>
<path d="M2 27L8.5 33.5" stroke="#73CD4A" stroke-width="2" stroke-linecap="round"/>
<path d="M27 8L33.5 14.5" stroke="#73CD4A" stroke-width="2" stroke-linecap="round"/>
<path d="M28 27L34.5 33.5" stroke="#73CD4A" stroke-width="2" stroke-linecap="round"/>
<path d="M30 2L35 7" stroke="#73CD4A" stroke-width="2" stroke-linecap="round"/>
</svg>
